# AST/ASF file generated using VICON BodyLanguage
# -----------------------------------------------
:version 1.10
:name VICON
:units
  mass 1.0
  length 0.45
  angle deg
:documentation
   .ast/.asf automatically generated from VICON data using
   VICON BodyBuilder and BodyLanguage model FoxedUp or BRILLIANT.MOD
:root
   order TX TY TZ RX RY RZ
   axis XYZ
   position 0 0 0  
   orientation 0 0 0 
:bonedata
  begin
     id 1 
     name lhipjoint
     direction 0.711131 -0.61297 0.344326 
     length 2.29162 
     axis 0 0 0  XYZ
  end
  begin
     id 2 
     name lfemur
     direction 0.34202 -0.939693 0  
     length 6.71424  
     axis 0 0 20  XYZ
    dof rx ry rz
    limits (-160.0 20.0)
           (-70.0 70.0)
           (-60.0 70.0)
  end
  begin
     id 3 
     name ltibia
     direction 0.34202 -0.939693 0   
     length 6.7087   
     axis 0 0 20   XYZ
    dof rx
    limits (-10.0 170.0)
  end
  begin
     id 4 
     name lfoot
     direction 0.0230374 -0.0632947 0.997729   
     length 1.56743   
     axis -90 7.62852e-016 20   XYZ
    dof rx rz
    limits (-45.0 90.0)
           (-70.0 20.0)
  end
  begin
     id 5 
     name ltoes
     direction 1.53585e-011 -4.21885e-011 1   
     length 0.802914   
     axis -90 7.62852e-016 20   XYZ
    dof rx
    limits (-90.0 20.0)
  end
  begin
     id 6 
     name rhipjoint
     direction -0.733192 -0.592884 0.333043   
     length 2.36925  
     axis 0 0 0  XYZ 
  end
  begin
     id 7 
     name rfemur
     direction -0.34202 -0.939693 0   
     length 6.67027   
     axis 0 0 -20   XYZ
    dof rx ry rz
    limits (-160.0 20.0)
           (-70.0 70.0)
           (-70.0 60.0)
  end
  begin
     id 8 
     name rtibia
     direction -0.34202 -0.939693 0   
     length 6.6862   
     axis 0 0 -20   XYZ
    dof rx
    limits (-10.0 170.0)
 end
 begin
     id 9 
     name rfoot
     direction -0.0949739 -0.260939 0.960672   
     length 1.67698  
     axis -90 -7.62852e-016 -20   XYZ
    dof rx rz
    limits (-45.0 90.0)
           (-20.0 70.0)
  end
  begin
     id 10 
     name rtoes
     direction -1.5353e-011 -4.21868e-011 1   
     length 0.846298   
     axis -90 -7.62852e-016 -20   XYZ
    dof rx
    limits (-90.0 20.0)
  end
  begin
     id 11 
     name lowerback
     direction -0.0206828 0.999785 -0.00109866   
     length 2.04382   
     axis 0 0 0   XYZ
    dof rx ry rz
    limits (-20.0 45.0)
           (-30.0 30.0)
           (-30.0 30.0)
  end
  begin
     id 12 
     name upperback
     direction -0.0105003 0.999727 -0.0208904   
     length 2.04538   
     axis 0 0 0   XYZ
    dof rx ry rz
    limits (-20.0 45.0)
           (-30.0 30.0)
           (-30.0 30.0)
  end
  begin
     id 13 
     name thorax
     direction -0.000416255 0.999808 -0.0196023   
     length 2.0399   
     axis 0 0 0   XYZ
    dof rx ry rz
    limits (-20.0 45.0)
           (-30.0 30.0)
           (-30.0 30.0)
  end
  begin
     id 14 
     name lowerneck
     direction 0.0627861 0.989205 0.13241   
     length 1.46207   
     axis 0 0 0   XYZ
    dof rx ry rz
    limits (-20.0 45.0)
           (-30.0 30.0)
           (-30.0 30.0)
  end
  begin
     id 15 
     name upperneck
     direction 0.00627179 0.994526 0.104303   
     length 1.41419   
     axis 0 0 0   XYZ
    dof rx ry rz
    limits (-20.0 45.0)
           (-30.0 30.0)
           (-30.0 30.0)
  end
  begin
     id 16
     name head
     direction -0.00443838 0.999688 0.0245968  
     length 1.50718  
     axis 0 0 0   XYZ
    dof rx ry rz
    limits (-20.0 45.0)
           (-30.0 30.0)
           (-30.0 30.0)
  end
  begin
     id 17 
     name lclavicle
     direction 0.758742 0.650995 -0.0227258  
     length 2.86888  
     axis 0 0 0   XYZ
    dof ry rz
    limits (-20.0 10.0)
           (0.0 20.0)
  end
  begin
     id 18 
     name lhumerus
     direction 1 -4.48962e-011 1.06664e-027   
     length 4.65776   
     axis -180 -30 -90   XYZ
    dof rx ry rz
    limits (-60.0 90.0)
           (-90.0 90.0)
           (-90.0 90.0)
  end
  begin
     id 19
     name lradius
     direction 1 -4.48968e-011 1.40404e-026   
     length 3.55539   
     axis -180 -30 -90   XYZ
    dof rx
    limits (-10.0 170.0)
  end
  begin
     id 20
     name lwrist
     direction 1 -4.48976e-011 3.32647e-026   
     length 1.77769   
     axis -2.20186e-014 90 90   XYZ
    dof ry
    limits (-180.0 0.0)
 end
  begin
     id 21 
     name lhand
     direction 1 -4.48982e-011 6.65293e-026   
     length 0.707264   
     axis -4.24514e-014 90 90   XYZ
    dof rx rz
    limits (-90.0 90.0)
           (-45.0 45.0)
  end
  begin
     id 22 
     name lfingers
     direction 1 -4.48966e-011 1.33059e-025   
     length 0.570215   
     axis -8.49028e-014 90 90   XYZ
    dof rx
    limits (0.0 90.0)
  end
  begin
     id 23
     name lthumb
     direction 0.707107 -6.3493e-011 0.707107   
     length 0.818718   
     axis -90 45 2.85299e-015   XYZ
    dof rx rz
    limits (-45.0 45.0)
           (-45.0 45.0)
  end
  begin
     id 24 
     name rclavicle
     direction -0.870343 0.482028 -0.100759   
     length 3.2251  
     axis 0 0 0   XYZ 
    dof ry rz
    limits (-10.0 20.0)
           (-20.0 0.0)
  end
  begin
     id 25 
     name rhumerus
     direction -1 -4.48974e-011 -9.45849e-028  
     length 4.71925   
     axis -180 30 90   XYZ
    dof rx ry rz
    limits (-90.0 60.0)
           (-90.0 90.0)
           (-90.0 90.0)
  end
  begin
     id 26 
     name rradius
     direction -1 -4.48965e-011 1.17607e-026   
     length 3.5699   
     axis -180 30 90   XYZ
    dof rx
    limits (-10.0 170.0)
  end
  begin
     id 27 
     name rwrist
     direction -1 -4.48968e-011 3.32647e-026   
     length 1.78495   
     axis -2.20186e-014 -90 -90   XYZ
    dof ry
    limits (-180.0 0.0)
  end
  begin
     id 28
     name rhand
     direction -1 -4.48995e-011 6.65293e-026   
     length 0.507757   
     axis -4.24514e-014 -90 -90   XYZ
    dof rx rz
    limits (-90.0 90.0)
           (-45.0 45.0)
  end
  begin
     id 29
     name rfingers
     direction -1 -4.48864e-011 1.33059e-025   
     length 0.409367   
     axis -8.49028e-014 -90 -90   XYZ
    dof rx
    limits (0.0 90.0)
  end
  begin
     id 30
     name rthumb
     direction -0.707107 -6.3494e-011 0.707107   
     length 0.587771   
     axis -90 -45 -2.85299e-015   XYZ
    dof rx rz
    limits (-45.0 45.0)
           (-45.0 45.0)
  end
:hierarchy
  begin
    root lhipjoint rhipjoint lowerback
    lhipjoint lfemur
    lfemur ltibia
    ltibia lfoot
    lfoot ltoes
    rhipjoint rfemur
    rfemur rtibia
    rtibia rfoot
    rfoot rtoes
    lowerback upperback
    upperback thorax
    thorax lowerneck lclavicle rclavicle
    lowerneck upperneck
    upperneck head
    lclavicle lhumerus
    lhumerus lradius
    lradius lwrist
    lwrist lhand lthumb
    lhand lfingers
    rclavicle rhumerus
    rhumerus rradius
    rradius rwrist
    rwrist rhand rthumb
    rhand rfingers
  end

#!OML:ASF E:\Steps\Project 1\Capture day 1\Session 2\Subject.ASF
:FULLY-SPECIFIED
:DEGREES
336
root 10.2362 16.4308 5.4049 23.2051 -6.06174 0.881157
lowerback -25.6032 -2.51223 -4.85899
upperback -4.6736 -2.03446 0.430204
thorax 9.20685 -1.11818 2.60072
lowerneck 0.437876 0.364273 -1.55217
upperneck -11.1745 1.6365 12.4311
head -3.48203 0.349042 4.00267
rclavicle -3.06377e-014 -2.20651e-014
rhumerus -35.8484 -21.688 -77.7273
rradius 28.2255
rwrist 8.75832
rhand -10.1301 -53.2586
rfingers 7.12502
rthumb 15.8584 -82.6292
lclavicle -3.06377e-014 -2.20651e-014
lhumerus -31.5865 14.6973 74.6984
lradius 19.7346
lwrist -8.22566
lhand -26.9142 -17.738
lfingers 7.12502
lthumb -0.337246 12.2415
rfemur -23.3596 7.23656 15.0312
rtibia 7.24786
rfoot -15.2066 -1.98984
rtoes -18.265
lfemur -21.4871 -5.98109 -18.6216
ltibia 6.94251
lfoot -6.70163 -0.324934
ltoes -30.0932
337
root 10.2392 16.4298 5.40678 23.2045 -6.07986 0.896064
lowerback -25.6805 -2.49525 -4.74202
upperback -4.62906 -2.02847 0.335214
thorax 9.28934 -1.11281 2.42731
lowerneck 0.299603 0.786242 -1.32041
upperneck -11.7185 2.15687 11.2976
head -3.65164 0.628094 3.6005
rclavicle -1.44864e-014 -5.36719e-015
rhumerus -35.6792 -21.6335 -77.8183
rradius 28.0646
rwrist 9.11061
rhand -10.0769 -53.4346
rfingers 7.12502
rthumb 15.9096 -82.8011
lclavicle -1.44864e-014 -5.36719e-015
lhumerus -31.2928 14.6005 74.827
lradius 19.7784
lwrist -8.24411
lhand -27.0933 -17.883
lfingers 7.12502
lthumb -0.510195 12.0961
rfemur -23.3514 7.20303 15.0111
rtibia 7.22052
rfoot -15.2022 -1.9814
rtoes -18.6325
lfemur -21.4654 -6.02769 -18.6552
ltibia 6.8918
lfoot -6.6847 -0.284014
ltoes -29.9449
338
root 10.2416 16.4301 5.40832 23.2048 -6.09447 0.881652
lowerback -25.7564 -2.45077 -4.5977
upperback -4.59378 -1.99126 0.209997
thorax 9.35645 -1.09078 2.21509
lowerneck -0.00773745 1.157 -1.47004
upperneck -11.8866 2.59509 10.6202
head -3.67456 0.883554 3.40378
rclavicle -2.79541e-015 -5.96354e-016
rhumerus -35.6117 -21.5166 -78.0438
rradius 28.1531
rwrist 9.26205
rhand -10.1115 -54.349
rfingers 7.12502
rthumb 15.8763 -83.7181
lclavicle -2.79541e-015 -5.96354e-016
lhumerus -31.0238 14.316 75.0165
lradius 20.0364
lwrist -7.75389
lhand -26.9238 -17.0487
lfingers 7.12502
lthumb -0.346478 12.9307
rfemur -23.3541 7.1712 15.0194
rtibia 7.20383
rfoot -15.1679 -1.90834
rtoes -18.3058
lfemur -21.4543 -5.98934 -18.6662
ltibia 6.85986
lfoot -6.67443 -0.256334
ltoes -30.4713
339
root 10.244 16.4282 5.41178 23.2293 -6.09496 0.848357
lowerback -25.8405 -2.41886 -4.44629
upperback -4.60114 -1.97543 0.106233
thorax 9.38205 -1.07753 2.01606
lowerneck 0.0186028 1.60477 -1.57754
upperneck -12.0618 3.14331 9.93088
head -3.76005 1.1827 3.19044
rclavicle -4.4975e-015 4.77083e-015
rhumerus -35.6856 -21.2547 -78.2767
rradius 28.3526
rwrist 9.27345
rhand -10.2335 -54.446
rfingers 7.12502
rthumb 15.7588 -83.8244
lclavicle -4.4975e-015 4.77083e-015
lhumerus -30.9338 14.2462 75.0947
lradius 20.3281
lwrist -7.53742
lhand -26.6456 -16.4718
lfingers 7.12502
lthumb -0.0778203 13.508
rfemur -23.3515 7.11626 15.0691
rtibia 7.19522
rfoot -15.1517 -1.83071
rtoes -18.31
lfemur -21.4581 -5.84278 -18.6795
ltibia 6.85842
lfoot -6.70129 -0.360417
ltoes -30.9708
340
root 10.2461 16.4265 5.41409 23.2744 -6.1007 0.84528
lowerback -25.9342 -2.40951 -4.33999
upperback -4.6054 -1.97945 0.0318306
thorax 9.41988 -1.07564 1.86867
lowerneck 0.47755 2.02832 -1.63528
upperneck -12.834 3.68434 9.02173
head -4.09104 1.45844 2.89763
rclavicle 6.28657e-015 -1.27222e-014
rhumerus -35.6163 -20.8815 -78.4467
rradius 28.3683
rwrist 9.22981
rhand -10.3871 -54.0132
rfingers 7.12502
rthumb 15.6109 -83.4033
lclavicle 6.28657e-015 -1.27222e-014
lhumerus -30.8094 14.4308 75.1341
lradius 20.4363
lwrist -7.7089
lhand -26.6308 -16.3802
lfingers 7.12502
lthumb -0.0635231 13.5996
rfemur -23.3885 7.07587 15.0806
rtibia 7.22117
rfoot -15.1805 -1.86641
rtoes -19.1127
lfemur -21.5087 -5.69205 -18.7179
ltibia 6.89466
lfoot -6.70483 -0.566551
ltoes -30.531
341
root 10.2463 16.4282 5.41414 23.2871 -6.11492 0.822686
lowerback -25.9266 -2.39997 -4.27959
upperback -4.62854 -1.98183 0.00581401
thorax 9.38726 -1.07388 1.80477
lowerneck 0.979297 2.64942 -2.05544
upperneck -13.546 4.50896 8.52317
head -4.43722 1.87735 2.77342
rclavicle -2.50096e-014 -1.19271e-015
rhumerus -35.5992 -20.6459 -78.4612
rradius 28.4145
rwrist 9.38198
rhand -10.6258 -53.8714
rfingers 7.12502
rthumb 15.3809 -83.2793
lclavicle -2.50096e-014 -1.19271e-015
lhumerus -30.6902 14.7022 75.232
lradius 20.4816
lwrist -7.82769
lhand -26.8758 -16.4081
lfingers 7.12502
lthumb -0.30016 13.5715
rfemur -23.4004 7.21792 15.0644
rtibia 7.19353
rfoot -15.1857 -2.01234
rtoes -18.9999
lfemur -21.529 -5.57328 -18.7114
ltibia 6.94351
lfoot -6.69342 -0.6761
ltoes -30.6202
342
root 10.2478 16.4288 5.41967 23.2346 -6.13546 0.791467
lowerback -25.92 -2.37672 -4.18131
upperback -4.61849 -1.97492 -0.0287602
thorax 9.39056 -1.06747 1.71214
lowerneck 0.910886 2.58437 -1.44181
upperneck -13.8034 4.2329 6.65402
head -4.44324 1.80341 2.10711
rclavicle 8.44835e-015 1.07344e-014
rhumerus -35.6739 -20.5657 -78.4502
rradius 28.5589
rwrist 9.64675
rhand -10.6467 -53.7748
rfingers 7.12502
rthumb 15.3608 -83.1842
lclavicle 8.44835e-015 1.07344e-014
lhumerus -30.5874 14.8321 75.3552
lradius 20.5603
lwrist -7.87826
lhand -27.0266 -16.4781
lfingers 7.12502
lthumb -0.445783 13.5012
rfemur -23.2714 7.27117 15.0895
rtibia 7.08626
rfoot -15.1534 -1.99206
rtoes -18.3778
lfemur -21.3952 -5.50293 -18.7177
ltibia 6.89388
lfoot -6.70547 -0.686142
ltoes -31.207
343
root 10.2506 16.4285 5.42528 23.1839 -6.14554 0.787791
lowerback -25.933 -2.34661 -4.06609
upperback -4.60204 -1.95808 -0.104515
thorax 9.40863 -1.05546 1.56668
lowerneck -0.0268722 2.74916 -0.758638
upperneck -12.8757 4.20451 4.77789
head -4.37811 1.89495 1.58528
rclavicle -1.3418e-015 3.1408e-014
rhumerus -35.7397 -20.3768 -78.5396
rradius 28.7101
rwrist 9.58196
rhand -10.4298 -53.7064
rfingers 7.12502
rthumb 15.5697 -83.0997
lclavicle -1.3418e-015 3.1408e-014
lhumerus -30.5398 14.7235 75.4939
lradius 20.8704
lwrist -7.69176
lhand -26.8083 -16.3706
lfingers 7.12502
lthumb -0.234954 13.609
rfemur -23.164 7.17966 15.1168
rtibia 7.06729
rfoot -15.1579 -1.89215
rtoes -18.3265
lfemur -21.2653 -5.49242 -18.7476
ltibia 6.81814
lfoot -6.7407 -0.721187
ltoes -30.969
344
root 10.2524 16.429 5.4241 23.1489 -6.17317 0.811568
lowerback -25.854 -2.30847 -4.01209
upperback -4.6393 -1.91843 -0.196288
thorax 9.31876 -1.03235 1.44938
lowerneck -0.0692472 3.36553 -1.18015
upperneck -13.0221 4.97571 4.31454
head -4.4473 2.31489 1.47182
rclavicle 7.28049e-015 1.03368e-014
rhumerus -35.928 -20.0899 -78.6307
rradius 29.0099
rwrist 9.32516
rhand -10.1807 -53.805
rfingers 7.12502
rthumb 15.8097 -83.1795
lclavicle 7.28049e-015 1.03368e-014
lhumerus -30.5507 14.5955 75.6079
lradius 21.2166
lwrist -7.35159
lhand -26.5693 -15.9453
lfingers 7.12502
lthumb -0.00409382 14.0345
rfemur -23.1613 7.22611 15.0624
rtibia 7.11363
rfoot -15.1693 -1.963
rtoes -18.446
lfemur -21.2346 -5.53992 -18.7636
ltibia 6.78416
lfoot -6.72565 -0.696564
ltoes -30.598
345
root 10.2538 16.4286 5.42131 23.1359 -6.21929 0.865973
lowerback -25.7817 -2.26043 -3.99609
upperback -4.68241 -1.85336 -0.308084
thorax 9.22496 -0.997987 1.34009
lowerneck 0.173025 3.4492 -1.67246
upperneck -13.0717 5.03288 3.98357
head -4.51943 2.3784 1.44045
rclavicle -2.64508e-014 -6.36111e-015
rhumerus -36.1071 -19.9447 -78.6727
rradius 29.2555
rwrist 9.39992
rhand -10.1136 -53.7958
rfingers 7.12502
rthumb 15.8742 -83.1651
lclavicle -2.64508e-014 -6.36111e-015
lhumerus -30.4915 14.5742 75.6754
lradius 21.3631
lwrist -7.20944
lhand -26.5512 -15.4551
lfingers 7.12502
lthumb 0.0133897 14.5247
rfemur -23.1984 7.32861 14.9416
rtibia 7.11663
rfoot -15.1566 -2.04006
rtoes -18.2284
lfemur -21.2592 -5.63806 -18.8
ltibia 6.76579
lfoot -6.65537 -0.576057
ltoes -30.3612
